C:\Users\israe\Dropbox\PhDWork\Simulation\code\PassiveMoments\Data/trialKnee_ankle0hip-20_ankle0hip15_ankle15hip-20.mot
nRows=82
nColumns=4

name C:\Users\israe\Dropbox\PhDWork\Simulation\code\PassiveMoments\Data/trialKnee_ankle0hip-20_ankle0hip15_ankle15hip-20.mot
datacolumns 4
datarows 82
range 1.5000000000 2.3100000000
endheader
time	ankle_angle_r	knee_angle_r	hip_flexion_r
        1.5000000000	       -0.0000000000	      -39.3636363636	       15.0000000000	
        1.5100000000	       -0.0000000000	      -40.0909090909	       15.0000000000	
        1.5200000000	       -0.0000000000	      -40.8181818182	       15.0000000000	
        1.5300000000	       -0.0000000000	      -41.5454545455	       15.0000000000	
        1.5400000000	       -0.0000000000	      -42.2727272727	       15.0000000000	
        1.5500000000	       -0.0000000000	      -43.0000000000	       15.0000000000	
        1.5600000000	       -0.0000000000	      -43.7272727273	       15.0000000000	
        1.5700000000	       -0.0000000000	      -44.4545454545	       15.0000000000	
        1.5800000000	       -0.0000000000	      -45.1818181818	       15.0000000000	
        1.5900000000	       -0.0000000000	      -45.9090909091	       15.0000000000	
        1.6000000000	       -0.0000000000	      -46.6363636364	       15.0000000000	
        1.6100000000	       -0.0000000000	      -47.3636363636	       15.0000000000	
        1.6200000000	       -0.0000000000	      -48.0909090909	       15.0000000000	
        1.6300000000	       -0.0000000000	      -48.8181818182	       15.0000000000	
        1.6400000000	       -0.0000000000	      -49.5454545455	       15.0000000000	
        1.6500000000	       -0.0000000000	      -50.2727272727	       15.0000000000	
        1.6600000000	       -0.0000000000	      -51.0000000000	       15.0000000000	
        1.6700000000	       -0.0000000000	      -51.7272727273	       15.0000000000	
        1.6800000000	       -0.0000000000	      -52.4545454545	       15.0000000000	
        1.6900000000	       -0.0000000000	      -53.1818181818	       15.0000000000	
        1.7000000000	       -0.0000000000	      -53.9090909091	       15.0000000000	
        1.7100000000	       -0.0000000000	      -54.6363636364	       15.0000000000	
        1.7200000000	       -0.0000000000	      -55.3636363636	       15.0000000000	
        1.7300000000	       -0.0000000000	      -56.0909090909	       15.0000000000	
        1.7400000000	       -0.0000000000	      -56.8181818182	       15.0000000000	
        1.7500000000	       -0.0000000000	      -57.5454545455	       15.0000000000	
        1.7600000000	       -0.0000000000	      -58.2727272727	       15.0000000000	
        1.7700000000	       -0.0000000000	      -59.0000000000	       15.0000000000	
        1.7800000000	       -0.0000000000	      -59.7272727273	       15.0000000000	
        1.7900000000	       -0.0000000000	      -60.4545454545	       15.0000000000	
        1.8000000000	       -0.0000000000	      -61.1818181818	       15.0000000000	
        1.8100000000	       -0.0000000000	      -61.9090909091	       15.0000000000	
        1.8200000000	       -0.0000000000	      -62.6363636364	       15.0000000000	
        1.8300000000	       -0.0000000000	      -63.3636363636	       15.0000000000	
        1.8400000000	       -0.0000000000	      -64.0909090909	       15.0000000000	
        1.8500000000	       -0.0000000000	      -64.8181818182	       15.0000000000	
        1.8600000000	       -0.0000000000	      -65.5454545455	       15.0000000000	
        1.8700000000	       -0.0000000000	      -66.2727272727	       15.0000000000	
        1.8800000000	       -0.0000000000	      -67.0000000000	       15.0000000000	
        1.8900000000	       -0.0000000000	      -67.7272727273	       15.0000000000	
        1.9000000000	       -0.0000000000	      -68.4545454545	       15.0000000000	
        1.9100000000	       -0.0000000000	      -69.1818181818	       15.0000000000	
        1.9200000000	       -0.0000000000	      -69.9090909091	       15.0000000000	
        1.9300000000	       -0.0000000000	      -70.6363636364	       15.0000000000	
        1.9400000000	       -0.0000000000	      -71.3636363636	       15.0000000000	
        1.9500000000	       -0.0000000000	      -72.0909090909	       15.0000000000	
        1.9600000000	       -0.0000000000	      -72.8181818182	       15.0000000000	
        1.9700000000	       -0.0000000000	      -73.5454545455	       15.0000000000	
        1.9800000000	       -0.0000000000	      -74.2727272727	       15.0000000000	
        1.9900000000	       -0.0000000000	      -75.0000000000	       15.0000000000	
        2.0000000000	       15.0000000000	       -1.0000000000	      -20.0000000000	
        2.0100000000	       15.0000000000	       -1.7272727273	      -20.0000000000	
        2.0200000000	       15.0000000000	       -2.4545454545	      -20.0000000000	
        2.0300000000	       15.0000000000	       -3.1818181818	      -20.0000000000	
        2.0400000000	       15.0000000000	       -3.9090909091	      -20.0000000000	
        2.0500000000	       15.0000000000	       -4.6363636364	      -20.0000000000	
        2.0600000000	       15.0000000000	       -5.3636363636	      -20.0000000000	
        2.0700000000	       15.0000000000	       -6.0909090909	      -20.0000000000	
        2.0800000000	       15.0000000000	       -6.8181818182	      -20.0000000000	
        2.0900000000	       15.0000000000	       -7.5454545455	      -20.0000000000	
        2.1000000000	       15.0000000000	       -8.2727272727	      -20.0000000000	
        2.1100000000	       15.0000000000	       -9.0000000000	      -20.0000000000	
        2.1200000000	       15.0000000000	       -9.7272727273	      -20.0000000000	
        2.1300000000	       15.0000000000	      -10.4545454545	      -20.0000000000	
        2.1400000000	       15.0000000000	      -11.1818181818	      -20.0000000000	
        2.1500000000	       15.0000000000	      -11.9090909091	      -20.0000000000	
        2.1600000000	       15.0000000000	      -12.6363636364	      -20.0000000000	
        2.1700000000	       15.0000000000	      -13.3636363636	      -20.0000000000	
        2.1800000000	       15.0000000000	      -14.0909090909	      -20.0000000000	
        2.1900000000	       15.0000000000	      -14.8181818182	      -20.0000000000	
        2.2000000000	       15.0000000000	      -15.5454545455	      -20.0000000000	
        2.2100000000	       15.0000000000	      -16.2727272727	      -20.0000000000	
        2.2200000000	       15.0000000000	      -17.0000000000	      -20.0000000000	
        2.2300000000	       15.0000000000	      -17.7272727273	      -20.0000000000	
        2.2400000000	       15.0000000000	      -18.4545454545	      -20.0000000000	
        2.2500000000	       15.0000000000	      -19.1818181818	      -20.0000000000	
        2.2600000000	       15.0000000000	      -19.9090909091	      -20.0000000000	
        2.2700000000	       15.0000000000	      -20.6363636364	      -20.0000000000	
        2.2800000000	       15.0000000000	      -21.3636363636	      -20.0000000000	
        2.2900000000	       15.0000000000	      -22.0909090909	      -20.0000000000	
        2.3000000000	       15.0000000000	      -22.8181818182	      -20.0000000000	
        2.3100000000	       15.0000000000	      -23.5454545455	      -20.0000000000	
